<svg width="2245" height="357" viewBox="0 0 2245 357" fill="none" xmlns="http://www.w3.org/2000/svg">
<path d="M385.584 185.526C377.894 185.526 371.257 183.617 365.674 179.8C360.092 175.984 355.791 170.515 352.772 163.394C349.809 156.273 348.328 147.757 348.328 137.845V137.759C348.328 127.79 349.838 119.274 352.857 112.21C355.876 105.089 360.149 99.649 365.674 95.8893C371.257 92.0726 377.894 90.1642 385.584 90.1642C389.913 90.1642 393.901 90.8763 397.547 92.3004C401.193 93.7246 404.383 95.7753 407.117 98.4528C409.909 101.073 412.13 104.235 413.782 107.938H414.295V60.3424H439.246V183.646H414.295V168.008H413.782C412.187 171.654 410.023 174.787 407.288 177.408C404.554 179.971 401.364 181.965 397.718 183.389C394.072 184.813 390.027 185.526 385.584 185.526ZM393.958 164.847C398.003 164.847 401.563 163.764 404.639 161.6C407.715 159.378 410.108 156.245 411.817 152.2C413.526 148.156 414.38 143.371 414.38 137.845V137.759C414.38 132.234 413.497 127.477 411.732 123.489C410.023 119.445 407.63 116.34 404.554 114.175C401.535 111.954 398.003 110.843 393.958 110.843C389.8 110.843 386.211 111.925 383.191 114.09C380.172 116.255 377.837 119.359 376.185 123.404C374.533 127.392 373.707 132.177 373.707 137.759V137.845C373.707 143.371 374.504 148.156 376.099 152.2C377.751 156.245 380.087 159.378 383.106 161.6C386.182 163.764 389.8 164.847 393.958 164.847ZM456.421 183.646V92.0441H481.373V183.646H456.421ZM468.897 80.2521C465.137 80.2521 461.976 78.9703 459.412 76.4069C456.849 73.8434 455.567 70.7957 455.567 67.2638C455.567 63.6749 456.849 60.6272 459.412 58.1207C461.976 55.5573 465.137 54.2755 468.897 54.2755C472.657 54.2755 475.818 55.5573 478.382 58.1207C480.945 60.6272 482.227 63.6749 482.227 67.2638C482.227 70.7957 480.945 73.8434 478.382 76.4069C475.818 78.9703 472.657 80.2521 468.897 80.2521ZM540.931 215.433C532.557 215.433 525.237 214.265 518.97 211.929C512.761 209.651 507.805 206.546 504.102 202.615C500.456 198.685 498.235 194.27 497.437 189.371L497.352 188.602H521.619L521.876 189.2C522.901 191.422 525.037 193.387 528.284 195.096C531.531 196.805 535.747 197.659 540.931 197.659C547.368 197.659 552.267 196.121 555.628 193.045C558.989 189.969 560.669 185.867 560.669 180.74V166.727H560.157C558.562 169.917 556.397 172.68 553.663 175.015C550.928 177.351 547.71 179.174 544.007 180.484C540.361 181.737 536.316 182.364 531.873 182.364C524.24 182.364 517.632 180.541 512.049 176.895C506.523 173.249 502.251 168.037 499.232 161.258C496.269 154.422 494.788 146.276 494.788 136.819V136.734C494.788 126.993 496.298 118.647 499.317 111.697C502.393 104.748 506.723 99.4212 512.305 95.7184C517.888 92.0156 524.553 90.1642 532.3 90.1642C536.63 90.1642 540.589 90.8763 544.178 92.3004C547.767 93.7246 550.9 95.7469 553.577 98.3673C556.312 100.988 558.505 104.092 560.157 107.681H560.669V92.0441H585.621V181.082C585.621 187.861 583.798 193.814 580.152 198.941C576.563 204.125 571.408 208.17 564.686 211.075C558.021 213.98 550.102 215.433 540.931 215.433ZM540.503 164.078C544.605 164.078 548.165 162.995 551.185 160.831C554.204 158.666 556.539 155.59 558.191 151.602C559.9 147.615 560.755 142.886 560.755 137.418V137.332C560.755 131.863 559.9 127.164 558.191 123.233C556.539 119.245 554.175 116.198 551.099 114.09C548.08 111.925 544.548 110.843 540.503 110.843C536.402 110.843 532.813 111.925 529.737 114.09C526.661 116.198 524.297 119.217 522.645 123.148C520.993 127.078 520.167 131.806 520.167 137.332V137.418C520.167 142.886 520.993 147.615 522.645 151.602C524.297 155.59 526.661 158.666 529.737 160.831C532.813 162.995 536.402 164.078 540.503 164.078ZM602.54 183.646V92.0441H627.491V183.646H602.54ZM615.015 80.2521C611.255 80.2521 608.094 78.9703 605.53 76.4069C602.967 73.8434 601.685 70.7957 601.685 67.2638C601.685 63.6749 602.967 60.6272 605.53 58.1207C608.094 55.5573 611.255 54.2755 615.015 54.2755C618.775 54.2755 621.937 55.5573 624.5 58.1207C627.064 60.6272 628.345 63.6749 628.345 67.2638C628.345 70.7957 627.064 73.8434 624.5 76.4069C621.937 78.9703 618.775 80.2521 615.015 80.2521ZM680.64 185.526C670.5 185.526 662.981 183.389 658.082 179.117C653.183 174.844 650.733 167.809 650.733 158.011V110.843H638.001V92.0441H650.733V69.6564H675.94V92.0441H692.689V110.843H675.94V155.276C675.94 159.549 676.88 162.54 678.76 164.249C680.697 165.901 683.545 166.727 687.305 166.727C688.445 166.727 689.441 166.698 690.296 166.641C691.15 166.527 691.948 166.413 692.689 166.299V184.586C691.321 184.813 689.612 185.013 687.562 185.184C685.568 185.412 683.261 185.526 680.64 185.526ZM732.85 185.098C726.754 185.098 721.399 183.93 716.785 181.595C712.171 179.202 708.554 175.927 705.933 171.768C703.37 167.553 702.088 162.768 702.088 157.413V157.242C702.088 151.659 703.484 146.902 706.275 142.972C709.066 138.984 713.111 135.851 718.409 133.572C723.707 131.294 730.144 129.898 737.72 129.385L773.438 127.164V142.715L741.48 144.766C736.695 145.051 733.049 146.19 730.543 148.184C728.036 150.121 726.783 152.713 726.783 155.96V156.131C726.783 159.492 728.065 162.141 730.628 164.078C733.191 165.958 736.638 166.898 740.967 166.898C744.67 166.898 747.974 166.186 750.879 164.761C753.842 163.28 756.149 161.286 757.801 158.78C759.51 156.216 760.364 153.34 760.364 150.15V122.379C760.364 118.334 759.083 115.144 756.519 112.808C753.956 110.416 750.224 109.219 745.325 109.219C740.654 109.219 736.951 110.188 734.217 112.125C731.482 114.061 729.802 116.511 729.175 119.473L729.004 120.242H706.19L706.275 119.217C706.731 113.577 708.582 108.564 711.829 104.178C715.133 99.7915 719.69 96.3735 725.501 93.924C731.369 91.4174 738.318 90.1642 746.351 90.1642C754.269 90.1642 761.133 91.4459 766.944 94.0094C772.754 96.5159 777.255 100.076 780.445 104.691C783.692 109.305 785.315 114.688 785.315 120.84V183.646H760.364V169.974H759.852C758.143 173.107 755.921 175.813 753.187 178.091C750.509 180.313 747.461 182.051 744.044 183.304C740.626 184.5 736.894 185.098 732.85 185.098ZM802.064 183.646V60.3424H827.015V183.646H802.064ZM878.541 213.553V92.0441H903.492V108.023H904.09C905.742 104.32 907.907 101.13 910.584 98.4528C913.318 95.7753 916.48 93.7246 920.069 92.3004C923.715 90.8763 927.702 90.1642 932.032 90.1642C939.779 90.1642 946.444 92.0726 952.027 95.8893C957.61 99.649 961.911 105.089 964.93 112.21C967.949 119.331 969.459 127.847 969.459 137.759V137.845C969.459 147.757 967.949 156.273 964.93 163.394C961.968 170.515 957.724 175.984 952.198 179.8C946.672 183.617 940.064 185.526 932.374 185.526C928.044 185.526 924.028 184.813 920.325 183.389C916.622 181.965 913.404 179.971 910.669 177.408C907.935 174.787 905.713 171.654 904.004 168.008H903.492V213.553H878.541ZM923.829 164.847C927.987 164.847 931.576 163.764 934.595 161.6C937.614 159.378 939.95 156.245 941.602 152.2C943.254 148.156 944.08 143.371 944.08 137.845V137.759C944.08 132.177 943.254 127.363 941.602 123.318C939.95 119.274 937.586 116.198 934.51 114.09C931.491 111.925 927.93 110.843 923.829 110.843C919.784 110.843 916.224 111.954 913.148 114.175C910.071 116.34 907.679 119.445 905.97 123.489C904.261 127.477 903.406 132.262 903.406 137.845V137.93C903.406 143.399 904.261 148.156 905.97 152.2C907.736 156.245 910.128 159.378 913.148 161.6C916.224 163.764 919.784 164.847 923.829 164.847ZM1009.71 185.098C1003.61 185.098 998.255 183.93 993.641 181.595C989.026 179.202 985.409 175.927 982.789 171.768C980.225 167.553 978.943 162.768 978.943 157.413V157.242C978.943 151.659 980.339 146.902 983.13 142.972C985.922 138.984 989.966 135.851 995.264 133.572C1000.56 131.294 1007 129.898 1014.58 129.385L1050.29 127.164V142.715L1018.34 144.766C1013.55 145.051 1009.9 146.19 1007.4 148.184C1004.89 150.121 1003.64 152.713 1003.64 155.96V156.131C1003.64 159.492 1004.92 162.141 1007.48 164.078C1010.05 165.958 1013.49 166.898 1017.82 166.898C1021.53 166.898 1024.83 166.186 1027.73 164.761C1030.7 163.28 1033 161.286 1034.66 158.78C1036.37 156.216 1037.22 153.34 1037.22 150.15V122.379C1037.22 118.334 1035.94 115.144 1033.37 112.808C1030.81 110.416 1027.08 109.219 1022.18 109.219C1017.51 109.219 1013.81 110.188 1011.07 112.125C1008.34 114.061 1006.66 116.511 1006.03 119.473L1005.86 120.242H983.045L983.13 119.217C983.586 113.577 985.438 108.564 988.685 104.178C991.989 99.7915 996.546 96.3735 1002.36 93.924C1008.22 91.4174 1015.17 90.1642 1023.21 90.1642C1031.12 90.1642 1037.99 91.4459 1043.8 94.0094C1049.61 96.5159 1054.11 100.076 1057.3 104.691C1060.55 109.305 1062.17 114.688 1062.17 120.84V183.646H1037.22V169.974H1036.71C1035 173.107 1032.78 175.813 1030.04 178.091C1027.36 180.313 1024.32 182.051 1020.9 183.304C1017.48 184.5 1013.75 185.098 1009.71 185.098ZM1114.72 185.526C1104.58 185.526 1097.06 183.389 1092.16 179.117C1087.26 174.844 1084.82 167.809 1084.82 158.011V110.843H1072.08V92.0441H1084.82V69.6564H1110.02V92.0441H1126.77V110.843H1110.02V155.276C1110.02 159.549 1110.96 162.54 1112.84 164.249C1114.78 165.901 1117.63 166.727 1121.39 166.727C1122.53 166.727 1123.52 166.698 1124.38 166.641C1125.23 166.527 1126.03 166.413 1126.77 166.299V184.586C1125.4 184.813 1123.69 185.013 1121.64 185.184C1119.65 185.412 1117.34 185.526 1114.72 185.526ZM1141.13 183.646V60.3424H1166.08V107.852H1166.59C1168.98 102.156 1172.54 97.7976 1177.27 94.7784C1182.06 91.7023 1187.87 90.1642 1194.7 90.1642C1201.37 90.1642 1207.09 91.6453 1211.88 94.6075C1216.66 97.5128 1220.34 101.643 1222.9 106.998C1225.52 112.352 1226.83 118.733 1226.83 126.138V183.646H1201.88V131.265C1201.88 124.885 1200.34 119.901 1197.27 116.312C1194.25 112.666 1189.89 110.843 1184.19 110.843C1180.55 110.843 1177.36 111.726 1174.62 113.492C1171.94 115.201 1169.84 117.593 1168.3 120.67C1166.82 123.689 1166.08 127.192 1166.08 131.18V183.646H1141.13ZM1284.94 185.526C1275.65 185.526 1267.62 183.617 1260.84 179.8C1254.06 175.984 1248.82 170.515 1245.12 163.394C1241.41 156.273 1239.56 147.757 1239.56 137.845V137.674C1239.56 127.819 1241.44 119.359 1245.2 112.296C1248.96 105.175 1254.23 99.706 1261.01 95.8893C1267.79 92.0726 1275.74 90.1642 1284.85 90.1642C1294.02 90.1642 1302 92.0726 1308.78 95.8893C1315.61 99.649 1320.91 105.089 1324.67 112.21C1328.43 119.274 1330.31 127.762 1330.31 137.674V137.845C1330.31 147.814 1328.43 156.359 1324.67 163.48C1320.97 170.6 1315.73 176.069 1308.95 179.886C1302.17 183.646 1294.17 185.526 1284.94 185.526ZM1285.02 165.958C1289.07 165.958 1292.57 164.875 1295.53 162.711C1298.55 160.489 1300.86 157.299 1302.45 153.14C1304.11 148.925 1304.93 143.826 1304.93 137.845V137.674C1304.93 131.749 1304.11 126.708 1302.45 122.549C1300.8 118.391 1298.47 115.229 1295.45 113.065C1292.43 110.843 1288.9 109.732 1284.85 109.732C1280.86 109.732 1277.36 110.843 1274.34 113.065C1271.38 115.229 1269.07 118.391 1267.42 122.549C1265.77 126.708 1264.94 131.749 1264.94 137.674V137.845C1264.94 143.826 1265.74 148.925 1267.33 153.14C1268.99 157.299 1271.32 160.489 1274.34 162.711C1277.36 164.875 1280.92 165.958 1285.02 165.958ZM1343.81 183.646V60.3424H1368.76V183.646H1343.81ZM1427.64 185.526C1418.35 185.526 1410.32 183.617 1403.54 179.8C1396.76 175.984 1391.52 170.515 1387.82 163.394C1384.12 156.273 1382.26 147.757 1382.26 137.845V137.674C1382.26 127.819 1384.14 119.359 1387.9 112.296C1391.66 105.175 1396.93 99.706 1403.71 95.8893C1410.49 92.0726 1418.44 90.1642 1427.55 90.1642C1436.72 90.1642 1444.7 92.0726 1451.48 95.8893C1458.31 99.649 1463.61 105.089 1467.37 112.21C1471.13 119.274 1473.01 127.762 1473.01 137.674V137.845C1473.01 147.814 1471.13 156.359 1467.37 163.48C1463.67 170.6 1458.43 176.069 1451.65 179.886C1444.87 183.646 1436.87 185.526 1427.64 185.526ZM1427.72 165.958C1431.77 165.958 1435.27 164.875 1438.23 162.711C1441.25 160.489 1443.56 157.299 1445.15 153.14C1446.81 148.925 1447.63 143.826 1447.63 137.845V137.674C1447.63 131.749 1446.81 126.708 1445.15 122.549C1443.5 118.391 1441.17 115.229 1438.15 113.065C1435.13 110.843 1431.6 109.732 1427.55 109.732C1423.56 109.732 1420.06 110.843 1417.04 113.065C1414.08 115.229 1411.77 118.391 1410.12 122.549C1408.47 126.708 1407.64 131.749 1407.64 137.674V137.845C1407.64 143.826 1408.44 148.925 1410.03 153.14C1411.69 157.299 1414.02 160.489 1417.04 162.711C1420.06 164.875 1423.62 165.958 1427.72 165.958ZM1528.72 215.433C1520.35 215.433 1513.03 214.265 1506.76 211.929C1500.55 209.651 1495.6 206.546 1491.9 202.615C1488.25 198.685 1486.03 194.27 1485.23 189.371L1485.14 188.602H1509.41L1509.67 189.2C1510.69 191.422 1512.83 193.387 1516.08 195.096C1519.32 196.805 1523.54 197.659 1528.72 197.659C1535.16 197.659 1540.06 196.121 1543.42 193.045C1546.78 189.969 1548.46 185.867 1548.46 180.74V166.727H1547.95C1546.35 169.917 1544.19 172.68 1541.46 175.015C1538.72 177.351 1535.5 179.174 1531.8 180.484C1528.15 181.737 1524.11 182.364 1519.67 182.364C1512.03 182.364 1505.42 180.541 1499.84 176.895C1494.32 173.249 1490.04 168.037 1487.02 161.258C1484.06 154.422 1482.58 146.276 1482.58 136.819V136.734C1482.58 126.993 1484.09 118.647 1487.11 111.697C1490.19 104.748 1494.52 99.4212 1500.1 95.7184C1505.68 92.0156 1512.35 90.1642 1520.09 90.1642C1524.42 90.1642 1528.38 90.8763 1531.97 92.3004C1535.56 93.7246 1538.69 95.7469 1541.37 98.3673C1544.1 100.988 1546.3 104.092 1547.95 107.681H1548.46V92.0441H1573.41V181.082C1573.41 187.861 1571.59 193.814 1567.94 198.941C1564.36 204.125 1559.2 208.17 1552.48 211.075C1545.81 213.98 1537.9 215.433 1528.72 215.433ZM1528.3 164.078C1532.4 164.078 1535.96 162.995 1538.98 160.831C1542 158.666 1544.33 155.59 1545.98 151.602C1547.69 147.615 1548.55 142.886 1548.55 137.418V137.332C1548.55 131.863 1547.69 127.164 1545.98 123.233C1544.33 119.245 1541.97 116.198 1538.89 114.09C1535.87 111.925 1532.34 110.843 1528.3 110.843C1524.19 110.843 1520.61 111.925 1517.53 114.09C1514.45 116.198 1512.09 119.217 1510.44 123.148C1508.79 127.078 1507.96 131.806 1507.96 137.332V137.418C1507.96 142.886 1508.79 147.615 1510.44 151.602C1512.09 155.59 1514.45 158.666 1517.53 160.831C1520.61 162.995 1524.19 164.078 1528.3 164.078ZM1604.18 213.809C1601.73 213.809 1599.36 213.695 1597.08 213.467C1594.8 213.24 1592.92 212.983 1591.44 212.698V194.156C1592.35 194.327 1593.52 194.498 1594.95 194.669C1596.37 194.896 1597.99 195.01 1599.82 195.01C1603.58 195.01 1606.54 194.384 1608.7 193.13C1610.87 191.877 1612.49 189.713 1613.57 186.636L1614.69 183.646L1582.3 92.0441H1609.73L1630.41 168.607L1627.08 163.651H1631.78L1628.44 168.607L1649.12 92.0441H1675.44L1643.99 185.269C1641.6 192.447 1638.58 198.115 1634.94 202.274C1631.35 206.432 1627.02 209.394 1621.95 211.16C1616.88 212.926 1610.95 213.809 1604.18 213.809Z" fill="#FFC600"/>
<g filter="url(#filter0_i_6_8)">
<path d="M261.61 154.223C259.323 150.496 254.168 149.232 250.174 151.38C246.146 153.496 244.78 158.266 247.068 161.961C269.803 198.57 275.539 229.114 262.02 241.622C236.178 265.565 155.647 224.408 99.5242 172.48C85.357 159.371 72.6237 145.726 61.5289 132.081C72.9309 117.835 85.8691 103.906 99.5242 91.2712C155.613 39.3749 236.144 -1.7505 262.02 22.1604C272.569 31.9205 271.476 52.9886 258.982 79.9633C245.293 109.528 219.826 142.41 187.292 172.511C179.68 179.555 171.794 186.346 163.84 192.663C160.324 195.443 159.948 200.37 162.952 203.592C165.99 206.846 171.282 207.193 174.764 204.413C183.025 197.844 191.218 190.768 199.138 183.472C233.139 152.012 259.869 117.425 274.378 86.0911C289.945 52.5148 289.74 25.9191 273.866 11.2315C242.596 -17.7016 160.802 12.6845 87.6784 80.374C74.0574 92.9769 61.8361 105.864 51.151 118.657C41.5583 105.485 33.6042 92.4399 27.8349 79.9949C15.3405 53.0518 14.2481 31.9837 24.7966 22.1919C38.3152 9.68376 71.2581 14.9587 110.824 35.9636C114.818 38.0799 119.973 36.8164 122.26 33.0892C124.547 29.362 123.182 24.6241 119.153 22.5078C71.3605 -2.85602 32.6483 -6.99383 12.9508 11.2315C-2.95739 25.9507 -3.12808 52.5148 12.4388 86.0911C19.2663 100.873 28.8932 116.351 40.6365 131.891C2.095 182.998 -10.4677 230.914 12.9508 252.583C21.0756 260.1 32.4093 263.796 46.2693 263.796C66.3082 263.796 91.6384 256.026 120.178 240.738C124.172 238.59 125.537 233.852 123.216 230.125C120.894 226.429 115.774 225.166 111.746 227.314C71.7702 248.792 38.4517 254.257 24.7966 241.622C7.18153 225.324 22.2363 185.525 51.3558 145.379C62.1434 158.297 74.3305 171.121 87.6443 183.44C121.645 214.9 159.026 239.601 192.925 253.056C210.848 260.163 226.961 263.733 240.581 263.733C254.51 263.733 265.809 260.005 273.866 252.583C293.563 234.357 289.091 198.507 261.61 154.223ZM143.425 106.022C127.995 106.022 115.467 117.614 115.467 131.891C115.467 146.168 127.995 157.76 143.425 157.76C158.856 157.76 171.384 146.168 171.384 131.891C171.35 117.614 158.856 106.022 143.425 106.022Z" fill="#FFC600"/>
</g>
<defs>
<filter id="filter0_i_6_8" x="0.890259" y="0.0134888" width="285.095" height="267.782" filterUnits="userSpaceOnUse" color-interpolation-filters="sRGB">
<feFlood flood-opacity="0" result="BackgroundImageFix"/>
<feBlend mode="normal" in="SourceGraphic" in2="BackgroundImageFix" result="shape"/>
<feColorMatrix in="SourceAlpha" type="matrix" values="0 0 0 0 0 0 0 0 0 0 0 0 0 0 0 0 0 0 127 0" result="hardAlpha"/>
<feOffset dy="4"/>
<feGaussianBlur stdDeviation="2"/>
<feComposite in2="hardAlpha" operator="arithmetic" k2="-1" k3="1"/>
<feColorMatrix type="matrix" values="0 0 0 0 0 0 0 0 0 0 0 0 0 0 0 0 0 0 0.25 0"/>
<feBlend mode="normal" in2="shape" result="effect1_innerShadow_6_8"/>
</filter>
</defs>
</svg>
