<svg width="2161" height="200" viewBox="0 0 2161 200" fill="none" xmlns="http://www.w3.org/2000/svg">
<g filter="url(#filter0_i_5_12)">
<path d="M9.67108 46.8074L103.671 132.807L196.671 46.8074L306.671 132.807L386.671 46.8074" stroke="#CCA300" stroke-width="18" stroke-linecap="round"/>
</g>
<g filter="url(#filter1_i_5_12)">
<path d="M9.67108 100.745L103.671 186.745L196.671 100.745L306.671 186.745L386.671 100.745" stroke="#CCA300" stroke-width="18" stroke-linecap="round"/>
</g>
<path d="M496.234 169.214C488.543 169.214 481.907 167.305 476.324 163.489C470.742 159.672 466.441 154.203 463.421 147.082C460.459 139.962 458.978 131.445 458.978 121.533V121.448C458.978 111.478 460.488 102.962 463.507 95.8982C466.526 88.7774 470.799 83.3372 476.324 79.5774C481.907 75.7607 488.543 73.8523 496.234 73.8523C500.563 73.8523 504.551 74.5644 508.197 75.9885C511.843 77.4127 515.033 79.4635 517.767 82.1409C520.558 84.7613 522.78 87.9229 524.432 91.6257H524.945V44.0305H549.896V167.334H524.945V151.697H524.432C522.837 155.342 520.672 158.476 517.938 161.096C515.204 163.659 512.014 165.653 508.368 167.077C504.722 168.502 500.677 169.214 496.234 169.214ZM504.608 148.535C508.653 148.535 512.213 147.453 515.289 145.288C518.365 143.066 520.758 139.933 522.467 135.888C524.176 131.844 525.03 127.059 525.03 121.533V121.448C525.03 115.922 524.147 111.165 522.381 107.177C520.672 103.133 518.28 100.028 515.204 97.8635C512.184 95.6418 508.653 94.531 504.608 94.531C500.449 94.531 496.861 95.6134 493.841 97.7781C490.822 99.9428 488.486 103.047 486.834 107.092C485.182 111.08 484.356 115.865 484.356 121.448V121.533C484.356 127.059 485.154 131.844 486.749 135.888C488.401 139.933 490.737 143.066 493.756 145.288C496.832 147.453 500.449 148.535 504.608 148.535ZM567.071 167.334V75.7322H592.022V167.334H567.071ZM579.547 63.9402C575.787 63.9402 572.625 62.6584 570.062 60.095C567.499 57.5315 566.217 54.4838 566.217 50.9519C566.217 47.363 567.499 44.3153 570.062 41.8088C572.625 39.2454 575.787 37.9636 579.547 37.9636C583.307 37.9636 586.468 39.2454 589.032 41.8088C591.595 44.3153 592.877 47.363 592.877 50.9519C592.877 54.4838 591.595 57.5315 589.032 60.095C586.468 62.6584 583.307 63.9402 579.547 63.9402ZM651.581 199.121C643.207 199.121 635.886 197.953 629.62 195.617C623.411 193.339 618.455 190.234 614.752 186.303C611.106 182.373 608.884 177.958 608.087 173.059L608.001 172.29H632.269L632.525 172.888C633.551 175.11 635.687 177.075 638.934 178.784C642.181 180.493 646.397 181.347 651.581 181.347C658.018 181.347 662.917 179.809 666.278 176.733C669.639 173.657 671.319 169.555 671.319 164.428V150.415H670.807C669.212 153.605 667.047 156.368 664.312 158.703C661.578 161.039 658.36 162.862 654.657 164.172C651.011 165.425 646.966 166.052 642.523 166.052C634.889 166.052 628.281 164.229 622.699 160.583C617.173 156.937 612.901 151.725 609.881 144.946C606.919 138.11 605.438 129.964 605.438 120.508V120.422C605.438 110.681 606.948 102.335 609.967 95.3855C613.043 88.4356 617.372 83.1093 622.955 79.4065C628.538 75.7037 635.203 73.8523 642.95 73.8523C647.28 73.8523 651.239 74.5644 654.828 75.9885C658.417 77.4127 661.55 79.435 664.227 82.0554C666.961 84.6759 669.155 87.7805 670.807 91.3694H671.319V75.7322H696.271V164.77C696.271 171.549 694.448 177.502 690.802 182.629C687.213 187.813 682.057 191.858 675.335 194.763C668.67 197.668 660.752 199.121 651.581 199.121ZM651.153 147.766C655.255 147.766 658.815 146.684 661.834 144.519C664.854 142.354 667.189 139.278 668.841 135.29C670.55 131.303 671.405 126.574 671.405 121.106V121.02C671.405 115.552 670.55 110.852 668.841 106.921C667.189 102.934 664.825 99.8858 661.749 97.7781C658.73 95.6134 655.198 94.531 651.153 94.531C647.052 94.531 643.463 95.6134 640.387 97.7781C637.311 99.8858 634.946 102.905 633.294 106.836C631.642 110.766 630.816 115.495 630.816 121.02V121.106C630.816 126.574 631.642 131.303 633.294 135.29C634.946 139.278 637.311 142.354 640.387 144.519C643.463 146.684 647.052 147.766 651.153 147.766ZM713.189 167.334V75.7322H738.141V167.334H713.189ZM725.665 63.9402C721.905 63.9402 718.744 62.6584 716.18 60.095C713.617 57.5315 712.335 54.4838 712.335 50.9519C712.335 47.363 713.617 44.3153 716.18 41.8088C718.744 39.2454 721.905 37.9636 725.665 37.9636C729.425 37.9636 732.586 39.2454 735.15 41.8088C737.713 44.3153 738.995 47.363 738.995 50.9519C738.995 54.4838 737.713 57.5315 735.15 60.095C732.586 62.6584 729.425 63.9402 725.665 63.9402ZM791.29 169.214C781.15 169.214 773.631 167.077 768.731 162.805C763.832 158.532 761.383 151.497 761.383 141.699V94.531H748.651V75.7322H761.383V53.3445H786.59V75.7322H803.338V94.531H786.59V138.965C786.59 143.237 787.53 146.228 789.41 147.937C791.347 149.589 794.195 150.415 797.955 150.415C799.094 150.415 800.091 150.386 800.946 150.329C801.8 150.215 802.598 150.101 803.338 149.988V168.274C801.971 168.502 800.262 168.701 798.211 168.872C796.218 169.1 793.91 169.214 791.29 169.214ZM843.5 168.786C837.404 168.786 832.049 167.619 827.435 165.283C822.821 162.89 819.203 159.615 816.583 155.456C814.02 151.241 812.738 146.456 812.738 141.101V140.93C812.738 135.347 814.133 130.591 816.925 126.66C819.716 122.672 823.761 119.539 829.059 117.26C834.356 114.982 840.794 113.586 848.37 113.073L884.088 110.852V126.404L852.13 128.454C847.345 128.739 843.699 129.878 841.192 131.872C838.686 133.809 837.433 136.401 837.433 139.648V139.819C837.433 143.18 838.714 145.829 841.278 147.766C843.841 149.646 847.288 150.586 851.617 150.586C855.32 150.586 858.624 149.874 861.529 148.449C864.492 146.968 866.799 144.975 868.451 142.468C870.16 139.905 871.014 137.028 871.014 133.838V106.067C871.014 102.022 869.732 98.8319 867.169 96.4963C864.605 94.1038 860.874 92.9075 855.975 92.9075C851.304 92.9075 847.601 93.8759 844.867 95.8127C842.132 97.7496 840.452 100.199 839.825 103.161L839.654 103.93H816.839L816.925 102.905C817.381 97.2654 819.232 92.2524 822.479 87.866C825.783 83.4796 830.34 80.0616 836.151 77.6121C842.018 75.1056 848.968 73.8523 857 73.8523C864.919 73.8523 871.783 75.134 877.594 77.6975C883.404 80.204 887.905 83.7644 891.095 88.3787C894.342 92.9929 895.965 98.3762 895.965 104.529V167.334H871.014V153.662H870.501C868.792 156.795 866.571 159.501 863.836 161.78C861.159 164.001 858.111 165.739 854.693 166.992C851.275 168.188 847.544 168.786 843.5 168.786ZM912.713 167.334V44.0305H937.665V167.334H912.713ZM989.19 197.241V75.7322H1014.14V91.7112H1014.74C1016.39 88.0084 1018.56 84.8183 1021.23 82.1409C1023.97 79.4635 1027.13 77.4127 1030.72 75.9885C1034.36 74.5644 1038.35 73.8523 1042.68 73.8523C1050.43 73.8523 1057.09 75.7607 1062.68 79.5774C1068.26 83.3372 1072.56 88.7774 1075.58 95.8982C1078.6 103.019 1080.11 111.535 1080.11 121.448V121.533C1080.11 131.445 1078.6 139.962 1075.58 147.082C1072.62 154.203 1068.37 159.672 1062.85 163.489C1057.32 167.305 1050.71 169.214 1043.02 169.214C1038.69 169.214 1034.68 168.502 1030.98 167.077C1027.27 165.653 1024.05 163.659 1021.32 161.096C1018.58 158.476 1016.36 155.342 1014.65 151.697H1014.14V197.241H989.19ZM1034.48 148.535C1038.64 148.535 1042.23 147.453 1045.25 145.288C1048.26 143.066 1050.6 139.933 1052.25 135.888C1053.9 131.844 1054.73 127.059 1054.73 121.533V121.448C1054.73 115.865 1053.9 111.051 1052.25 107.007C1050.6 102.962 1048.24 99.8858 1045.16 97.7781C1042.14 95.6134 1038.58 94.531 1034.48 94.531C1030.43 94.531 1026.87 95.6418 1023.8 97.8635C1020.72 100.028 1018.33 103.133 1016.62 107.177C1014.91 111.165 1014.06 115.95 1014.06 121.533V121.618C1014.06 127.087 1014.91 131.844 1016.62 135.888C1018.39 139.933 1020.78 143.066 1023.8 145.288C1026.87 147.453 1030.43 148.535 1034.48 148.535ZM1120.35 168.786C1114.26 168.786 1108.9 167.619 1104.29 165.283C1099.68 162.89 1096.06 159.615 1093.44 155.456C1090.88 151.241 1089.59 146.456 1089.59 141.101V140.93C1089.59 135.347 1090.99 130.591 1093.78 126.66C1096.57 122.672 1100.62 119.539 1105.91 117.26C1111.21 114.982 1117.65 113.586 1125.23 113.073L1160.94 110.852V126.404L1128.99 128.454C1124.2 128.739 1120.55 129.878 1118.05 131.872C1115.54 133.809 1114.29 136.401 1114.29 139.648V139.819C1114.29 143.18 1115.57 145.829 1118.13 147.766C1120.7 149.646 1124.14 150.586 1128.47 150.586C1132.18 150.586 1135.48 149.874 1138.38 148.449C1141.35 146.968 1143.65 144.975 1145.31 142.468C1147.02 139.905 1147.87 137.028 1147.87 133.838V106.067C1147.87 102.022 1146.59 98.8319 1144.02 96.4963C1141.46 94.1038 1137.73 92.9075 1132.83 92.9075C1128.16 92.9075 1124.46 93.8759 1121.72 95.8127C1118.99 97.7496 1117.31 100.199 1116.68 103.161L1116.51 103.93H1093.69L1093.78 102.905C1094.24 97.2654 1096.09 92.2524 1099.33 87.866C1102.64 83.4796 1107.2 80.0616 1113.01 77.6121C1118.87 75.1056 1125.82 73.8523 1133.86 73.8523C1141.77 73.8523 1148.64 75.134 1154.45 77.6975C1160.26 80.204 1164.76 83.7644 1167.95 88.3787C1171.2 92.9929 1172.82 98.3762 1172.82 104.529V167.334H1147.87V153.662H1147.36C1145.65 156.795 1143.43 159.501 1140.69 161.78C1138.01 164.001 1134.97 165.739 1131.55 166.992C1128.13 168.188 1124.4 168.786 1120.35 168.786ZM1225.37 169.214C1215.23 169.214 1207.71 167.077 1202.81 162.805C1197.91 158.532 1195.46 151.497 1195.46 141.699V94.531H1182.73V75.7322H1195.46V53.3445H1220.67V75.7322H1237.42V94.531H1220.67V138.965C1220.67 143.237 1221.61 146.228 1223.49 147.937C1225.43 149.589 1228.28 150.415 1232.04 150.415C1233.18 150.415 1234.17 150.386 1235.03 150.329C1235.88 150.215 1236.68 150.101 1237.42 149.988V168.274C1236.05 168.502 1234.34 168.701 1232.29 168.872C1230.3 169.1 1227.99 169.214 1225.37 169.214ZM1251.78 167.334V44.0305H1276.73V91.5403H1277.24C1279.63 85.8437 1283.19 81.4858 1287.92 78.4666C1292.71 75.3904 1298.52 73.8523 1305.35 73.8523C1312.02 73.8523 1317.74 75.3334 1322.53 78.2957C1327.31 81.2009 1330.99 85.331 1333.55 90.6858C1336.17 96.0406 1337.48 102.421 1337.48 109.826V167.334H1312.53V114.953C1312.53 108.573 1310.99 103.589 1307.92 99.9998C1304.9 96.3539 1300.54 94.531 1294.84 94.531C1291.2 94.531 1288.01 95.414 1285.27 97.1799C1282.59 98.8889 1280.49 101.281 1278.95 104.358C1277.47 107.377 1276.73 110.88 1276.73 114.868V167.334H1251.78ZM1395.59 169.214C1386.3 169.214 1378.27 167.305 1371.49 163.489C1364.71 159.672 1359.47 154.203 1355.77 147.082C1352.06 139.962 1350.21 131.445 1350.21 121.533V121.362C1350.21 111.507 1352.09 103.047 1355.85 95.9836C1359.61 88.8629 1364.88 83.3941 1371.66 79.5774C1378.44 75.7607 1386.39 73.8523 1395.5 73.8523C1404.67 73.8523 1412.65 75.7607 1419.43 79.5774C1426.26 83.3372 1431.56 88.7774 1435.32 95.8982C1439.08 102.962 1440.96 111.45 1440.96 121.362V121.533C1440.96 131.502 1439.08 140.047 1435.32 147.168C1431.62 154.288 1426.38 159.757 1419.6 163.574C1412.82 167.334 1404.82 169.214 1395.59 169.214ZM1395.67 149.646C1399.72 149.646 1403.22 148.563 1406.18 146.399C1409.2 144.177 1411.51 140.987 1413.1 136.828C1414.76 132.613 1415.58 127.514 1415.58 121.533V121.362C1415.58 115.438 1414.76 110.396 1413.1 106.238C1411.45 102.079 1409.12 98.9174 1406.1 96.7527C1403.08 94.531 1399.55 93.4202 1395.5 93.4202C1391.51 93.4202 1388.01 94.531 1384.99 96.7527C1382.03 98.9174 1379.72 102.079 1378.07 106.238C1376.42 110.396 1375.59 115.438 1375.59 121.362V121.533C1375.59 127.514 1376.39 132.613 1377.98 136.828C1379.64 140.987 1381.97 144.177 1384.99 146.399C1388.01 148.563 1391.57 149.646 1395.67 149.646ZM1454.46 167.334V44.0305H1479.41V167.334H1454.46ZM1538.29 169.214C1529 169.214 1520.97 167.305 1514.19 163.489C1507.41 159.672 1502.17 154.203 1498.47 147.082C1494.76 139.962 1492.91 131.445 1492.91 121.533V121.362C1492.91 111.507 1494.79 103.047 1498.55 95.9836C1502.31 88.8629 1507.58 83.3941 1514.36 79.5774C1521.14 75.7607 1529.09 73.8523 1538.2 73.8523C1547.37 73.8523 1555.35 75.7607 1562.13 79.5774C1568.96 83.3372 1574.26 88.7774 1578.02 95.8982C1581.78 102.962 1583.66 111.45 1583.66 121.362V121.533C1583.66 131.502 1581.78 140.047 1578.02 147.168C1574.32 154.288 1569.08 159.757 1562.3 163.574C1555.52 167.334 1547.52 169.214 1538.29 169.214ZM1538.37 149.646C1542.42 149.646 1545.92 148.563 1548.88 146.399C1551.9 144.177 1554.21 140.987 1555.8 136.828C1557.46 132.613 1558.28 127.514 1558.28 121.533V121.362C1558.28 115.438 1557.46 110.396 1555.8 106.238C1554.15 102.079 1551.82 98.9174 1548.8 96.7527C1545.78 94.531 1542.25 93.4202 1538.2 93.4202C1534.21 93.4202 1530.71 94.531 1527.69 96.7527C1524.73 98.9174 1522.42 102.079 1520.77 106.238C1519.12 110.396 1518.29 115.438 1518.29 121.362V121.533C1518.29 127.514 1519.09 132.613 1520.68 136.828C1522.34 140.987 1524.67 144.177 1527.69 146.399C1530.71 148.563 1534.27 149.646 1538.37 149.646ZM1639.37 199.121C1631 199.121 1623.68 197.953 1617.41 195.617C1611.2 193.339 1606.25 190.234 1602.54 186.303C1598.9 182.373 1596.68 177.958 1595.88 173.059L1595.79 172.29H1620.06L1620.32 172.888C1621.34 175.11 1623.48 177.075 1626.73 178.784C1629.97 180.493 1634.19 181.347 1639.37 181.347C1645.81 181.347 1650.71 179.809 1654.07 176.733C1657.43 173.657 1659.11 169.555 1659.11 164.428V150.415H1658.6C1657 153.605 1654.84 156.368 1652.11 158.703C1649.37 161.039 1646.15 162.862 1642.45 164.172C1638.8 165.425 1634.76 166.052 1630.32 166.052C1622.68 166.052 1616.07 164.229 1610.49 160.583C1604.97 156.937 1600.69 151.725 1597.67 144.946C1594.71 138.11 1593.23 129.964 1593.23 120.508V120.422C1593.23 110.681 1594.74 102.335 1597.76 95.3855C1600.84 88.4356 1605.17 83.1093 1610.75 79.4065C1616.33 75.7037 1623 73.8523 1630.74 73.8523C1635.07 73.8523 1639.03 74.5644 1642.62 75.9885C1646.21 77.4127 1649.34 79.435 1652.02 82.0554C1654.75 84.6759 1656.95 87.7805 1658.6 91.3694H1659.11V75.7322H1684.06V164.77C1684.06 171.549 1682.24 177.502 1678.59 182.629C1675.01 187.813 1669.85 191.858 1663.13 194.763C1656.46 197.668 1648.55 199.121 1639.37 199.121ZM1638.95 147.766C1643.05 147.766 1646.61 146.684 1649.63 144.519C1652.65 142.354 1654.98 139.278 1656.63 135.29C1658.34 131.303 1659.2 126.574 1659.2 121.106V121.02C1659.2 115.552 1658.34 110.852 1656.63 106.921C1654.98 102.934 1652.62 99.8858 1649.54 97.7781C1646.52 95.6134 1642.99 94.531 1638.95 94.531C1634.84 94.531 1631.26 95.6134 1628.18 97.7781C1625.1 99.8858 1622.74 102.905 1621.09 106.836C1619.44 110.766 1618.61 115.495 1618.61 121.02V121.106C1618.61 126.574 1619.44 131.303 1621.09 135.29C1622.74 139.278 1625.1 142.354 1628.18 144.519C1631.26 146.684 1634.84 147.766 1638.95 147.766ZM1714.83 197.497C1712.38 197.497 1710.01 197.383 1707.73 197.156C1705.45 196.928 1703.57 196.671 1702.09 196.386V177.844C1703 178.015 1704.17 178.186 1705.6 178.357C1707.02 178.585 1708.64 178.698 1710.47 178.698C1714.23 178.698 1717.19 178.072 1719.35 176.819C1721.52 175.565 1723.14 173.401 1724.22 170.324L1725.34 167.334L1692.95 75.7322H1720.38L1741.06 152.295L1737.73 147.339H1742.43L1739.09 152.295L1759.77 75.7322H1786.09L1754.64 168.957C1752.25 176.135 1749.23 181.803 1745.59 185.962C1742 190.12 1737.67 193.082 1732.6 194.848C1727.53 196.614 1721.6 197.497 1714.83 197.497Z" fill="#CCA300"/>
<defs>
<filter id="filter0_i_5_12" x="0.671021" y="35.0011" width="395" height="114.034" filterUnits="userSpaceOnUse" color-interpolation-filters="sRGB">
<feFlood flood-opacity="0" result="BackgroundImageFix"/>
<feBlend mode="normal" in="SourceGraphic" in2="BackgroundImageFix" result="shape"/>
<feColorMatrix in="SourceAlpha" type="matrix" values="0 0 0 0 0 0 0 0 0 0 0 0 0 0 0 0 0 0 127 0" result="hardAlpha"/>
<feOffset dy="4"/>
<feGaussianBlur stdDeviation="2"/>
<feComposite in2="hardAlpha" operator="arithmetic" k2="-1" k3="1"/>
<feColorMatrix type="matrix" values="0 0 0 0 0 0 0 0 0 0 0 0 0 0 0 0 0 0 0.25 0"/>
<feBlend mode="normal" in2="shape" result="effect1_innerShadow_5_12"/>
</filter>
<filter id="filter1_i_5_12" x="0.671021" y="88.939" width="395" height="114.034" filterUnits="userSpaceOnUse" color-interpolation-filters="sRGB">
<feFlood flood-opacity="0" result="BackgroundImageFix"/>
<feBlend mode="normal" in="SourceGraphic" in2="BackgroundImageFix" result="shape"/>
<feColorMatrix in="SourceAlpha" type="matrix" values="0 0 0 0 0 0 0 0 0 0 0 0 0 0 0 0 0 0 127 0" result="hardAlpha"/>
<feOffset dy="4"/>
<feGaussianBlur stdDeviation="2"/>
<feComposite in2="hardAlpha" operator="arithmetic" k2="-1" k3="1"/>
<feColorMatrix type="matrix" values="0 0 0 0 0 0 0 0 0 0 0 0 0 0 0 0 0 0 0.25 0"/>
<feBlend mode="normal" in2="shape" result="effect1_innerShadow_5_12"/>
</filter>
</defs>
</svg>
