<svg width="1385" height="409" viewBox="0 0 1385 409" fill="none" xmlns="http://www.w3.org/2000/svg">
<path d="M458.488 168.984C450.798 168.984 444.161 167.076 438.579 163.259C432.996 159.442 428.695 153.974 425.676 146.853C422.714 139.732 421.232 131.216 421.232 121.303V121.218C421.232 111.249 422.742 102.733 425.761 95.6687C428.78 88.5479 433.053 83.1077 438.579 79.3479C444.161 75.5312 450.798 73.6228 458.488 73.6228C462.818 73.6228 466.805 74.3349 470.451 75.759C474.097 77.1832 477.287 79.234 480.021 81.9114C482.813 84.5318 485.035 87.6934 486.687 91.3962H487.199V43.801H512.15V167.104H487.199V151.467H486.687C485.091 155.113 482.927 158.246 480.192 160.866C477.458 163.43 474.268 165.424 470.622 166.848C466.976 168.272 462.932 168.984 458.488 168.984ZM466.862 148.305C470.907 148.305 474.467 147.223 477.543 145.058C480.62 142.837 483.012 139.704 484.721 135.659C486.43 131.614 487.285 126.829 487.285 121.303V121.218C487.285 115.692 486.402 110.936 484.636 106.948C482.927 102.903 480.534 99.7987 477.458 97.634C474.439 95.4124 470.907 94.3015 466.862 94.3015C462.704 94.3015 459.115 95.3839 456.096 97.5486C453.076 99.7133 450.741 102.818 449.089 106.863C447.437 110.85 446.611 115.635 446.611 121.218V121.303C446.611 126.829 447.408 131.614 449.003 135.659C450.655 139.704 452.991 142.837 456.01 145.058C459.086 147.223 462.704 148.305 466.862 148.305ZM529.326 167.104V75.5027H554.277V167.104H529.326ZM541.801 63.7107C538.042 63.7107 534.88 62.429 532.316 59.8655C529.753 57.302 528.471 54.2543 528.471 50.7224C528.471 47.1335 529.753 44.0859 532.316 41.5793C534.88 39.0159 538.042 37.7341 541.801 37.7341C545.561 37.7341 548.723 39.0159 551.286 41.5793C553.85 44.0859 555.131 47.1335 555.131 50.7224C555.131 54.2543 553.85 57.302 551.286 59.8655C548.723 62.429 545.561 63.7107 541.801 63.7107ZM613.835 198.891C605.461 198.891 598.141 197.724 591.875 195.388C585.665 193.109 580.709 190.005 577.006 186.074C573.361 182.143 571.139 177.728 570.341 172.829L570.256 172.06H594.523L594.78 172.658C595.805 174.88 597.941 176.845 601.188 178.554C604.436 180.263 608.651 181.118 613.835 181.118C620.272 181.118 625.171 179.58 628.532 176.504C631.893 173.427 633.574 169.326 633.574 164.199V150.185H633.061C631.466 153.375 629.301 156.138 626.567 158.474C623.833 160.809 620.614 162.632 616.911 163.943C613.265 165.196 609.221 165.823 604.777 165.823C597.144 165.823 590.536 164 584.953 160.354C579.427 156.708 575.155 151.496 572.136 144.717C569.174 137.881 567.692 129.734 567.692 120.278V120.193C567.692 110.451 569.202 102.106 572.221 95.156C575.297 88.2061 579.627 82.8798 585.209 79.177C590.792 75.4742 597.457 73.6228 605.205 73.6228C609.534 73.6228 613.493 74.3349 617.082 75.759C620.671 77.1832 623.804 79.2055 626.481 81.8259C629.216 84.4464 631.409 87.551 633.061 91.1399H633.574V75.5027H658.525V164.541C658.525 171.32 656.702 177.273 653.056 182.4C649.467 187.584 644.312 191.628 637.59 194.533C630.925 197.439 623.007 198.891 613.835 198.891ZM613.408 147.536C617.509 147.536 621.07 146.454 624.089 144.289C627.108 142.125 629.444 139.048 631.096 135.061C632.805 131.073 633.659 126.345 633.659 120.876V120.791C633.659 115.322 632.805 110.622 631.096 106.692C629.444 102.704 627.08 99.6563 624.003 97.5486C620.984 95.3839 617.452 94.3015 613.408 94.3015C609.306 94.3015 605.717 95.3839 602.641 97.5486C599.565 99.6563 597.201 102.676 595.549 106.606C593.897 110.537 593.071 115.265 593.071 120.791V120.876C593.071 126.345 593.897 131.073 595.549 135.061C597.201 139.048 599.565 142.125 602.641 144.289C605.717 146.454 609.306 147.536 613.408 147.536ZM675.444 167.104V75.5027H700.395V167.104H675.444ZM687.919 63.7107C684.16 63.7107 680.998 62.429 678.435 59.8655C675.871 57.302 674.589 54.2543 674.589 50.7224C674.589 47.1335 675.871 44.0859 678.435 41.5793C680.998 39.0159 684.16 37.7341 687.919 37.7341C691.679 37.7341 694.841 39.0159 697.404 41.5793C699.968 44.0859 701.25 47.1335 701.25 50.7224C701.25 54.2543 699.968 57.302 697.404 59.8655C694.841 62.429 691.679 63.7107 687.919 63.7107ZM753.544 168.984C743.404 168.984 735.885 166.848 730.986 162.575C726.087 158.303 723.637 151.268 723.637 141.469V94.3015H710.905V75.5027H723.637V53.115H748.845V75.5027H765.593V94.3015H748.845V138.735C748.845 143.008 749.785 145.998 751.665 147.707C753.601 149.359 756.45 150.185 760.209 150.185C761.349 150.185 762.346 150.157 763.2 150.1C764.055 149.986 764.852 149.872 765.593 149.758V168.044C764.226 168.272 762.517 168.471 760.466 168.642C758.472 168.87 756.165 168.984 753.544 168.984ZM805.754 168.557C799.659 168.557 794.304 167.389 789.689 165.053C785.075 162.661 781.458 159.385 778.837 155.227C776.274 151.011 774.992 146.226 774.992 140.871V140.7C774.992 135.118 776.388 130.361 779.179 126.43C781.971 122.443 786.015 119.31 791.313 117.031C796.611 114.752 803.048 113.357 810.625 112.844L846.342 110.622V126.174L814.384 128.225C809.599 128.51 805.953 129.649 803.447 131.643C800.94 133.58 799.687 136.172 799.687 139.419V139.59C799.687 142.951 800.969 145.6 803.532 147.536C806.096 149.416 809.542 150.356 813.872 150.356C817.574 150.356 820.878 149.644 823.784 148.22C826.746 146.739 829.053 144.745 830.705 142.239C832.414 139.675 833.269 136.798 833.269 133.608V105.837C833.269 101.793 831.987 98.6025 829.423 96.2668C826.86 93.8743 823.129 92.678 818.229 92.678C813.558 92.678 809.855 93.6464 807.121 95.5833C804.387 97.5201 802.706 99.9696 802.08 102.932L801.909 103.701H779.094L779.179 102.676C779.635 97.0359 781.486 92.0229 784.733 87.6365C788.037 83.2501 792.595 79.8321 798.405 77.3826C804.273 74.8761 811.223 73.6228 819.255 73.6228C827.173 73.6228 834.038 74.9045 839.848 77.468C845.659 79.9745 850.159 83.5349 853.349 88.1492C856.596 92.7634 858.22 98.1467 858.22 104.299V167.104H833.269V153.432H832.756C831.047 156.566 828.825 159.271 826.091 161.55C823.413 163.772 820.366 165.509 816.948 166.762C813.53 167.959 809.799 168.557 805.754 168.557ZM874.968 167.104V43.801H899.919V167.104H874.968ZM424.565 406.011V284.503H449.516V300.482H450.114C451.766 296.779 453.931 293.589 456.608 290.911C459.343 288.234 462.504 286.183 466.093 284.759C469.739 283.335 473.727 282.623 478.056 282.623C485.804 282.623 492.469 284.531 498.051 288.348C503.634 292.108 507.935 297.548 510.954 304.669C513.973 311.789 515.483 320.306 515.483 330.218V330.303C515.483 340.216 513.973 348.732 510.954 355.853C507.992 362.974 503.748 368.442 498.222 372.259C492.696 376.076 486.088 377.984 478.398 377.984C474.069 377.984 470.052 377.272 466.35 375.848C462.647 374.424 459.428 372.43 456.694 369.866C453.959 367.246 451.738 364.113 450.029 360.467H449.516V406.011H424.565ZM469.853 357.305C474.012 357.305 477.6 356.223 480.62 354.058C483.639 351.837 485.974 348.704 487.626 344.659C489.278 340.614 490.104 335.829 490.104 330.303V330.218C490.104 324.635 489.278 319.822 487.626 315.777C485.974 311.733 483.61 308.656 480.534 306.549C477.515 304.384 473.955 303.302 469.853 303.302C465.808 303.302 462.248 304.412 459.172 306.634C456.096 308.799 453.703 311.903 451.994 315.948C450.285 319.936 449.431 324.721 449.431 330.303V330.389C449.431 335.858 450.285 340.614 451.994 344.659C453.76 348.704 456.153 351.837 459.172 354.058C462.248 356.223 465.808 357.305 469.853 357.305ZM555.729 377.557C549.634 377.557 544.279 376.389 539.665 374.053C535.051 371.661 531.433 368.385 528.813 364.227C526.25 360.011 524.968 355.226 524.968 349.871V349.7C524.968 344.118 526.363 339.361 529.155 335.43C531.946 331.443 535.991 328.31 541.289 326.031C546.586 323.752 553.024 322.357 560.6 321.844L596.318 319.622V335.174L564.36 337.225C559.575 337.51 555.929 338.649 553.422 340.643C550.916 342.58 549.663 345.172 549.663 348.419V348.59C549.663 351.951 550.944 354.6 553.508 356.536C556.071 358.416 559.518 359.356 563.847 359.356C567.55 359.356 570.854 358.644 573.759 357.22C576.722 355.739 579.029 353.745 580.681 351.239C582.39 348.675 583.244 345.798 583.244 342.608V314.837C583.244 310.793 581.962 307.602 579.399 305.267C576.835 302.874 573.104 301.678 568.205 301.678C563.534 301.678 559.831 302.646 557.097 304.583C554.362 306.52 552.682 308.97 552.055 311.932L551.884 312.701H529.069L529.155 311.676C529.611 306.036 531.462 301.023 534.709 296.636C538.013 292.25 542.57 288.832 548.381 286.383C554.248 283.876 561.198 282.623 569.23 282.623C577.149 282.623 584.013 283.905 589.824 286.468C595.634 288.975 600.135 292.535 603.325 297.149C606.572 301.763 608.195 307.147 608.195 313.299V376.104H583.244V362.432H582.731C581.022 365.566 578.801 368.271 576.066 370.55C573.389 372.772 570.341 374.509 566.923 375.762C563.505 376.959 559.774 377.557 555.729 377.557ZM660.747 377.984C650.607 377.984 643.087 375.848 638.188 371.575C633.289 367.303 630.839 360.268 630.839 350.469V303.302H618.107V284.503H630.839V262.115H656.047V284.503H672.795V303.302H656.047V347.735C656.047 352.008 656.987 354.998 658.867 356.707C660.804 358.359 663.652 359.185 667.412 359.185C668.551 359.185 669.548 359.157 670.402 359.1C671.257 358.986 672.054 358.872 672.795 358.758V377.044C671.428 377.272 669.719 377.471 667.668 377.642C665.674 377.87 663.367 377.984 660.747 377.984ZM687.15 376.104V252.801H712.102V300.311H712.614C715.007 294.614 718.567 290.256 723.295 287.237C728.081 284.161 733.891 282.623 740.727 282.623C747.392 282.623 753.117 284.104 757.902 287.066C762.688 289.971 766.362 294.101 768.925 299.456C771.546 304.811 772.856 311.191 772.856 318.597V376.104H747.905V323.724C747.905 317.344 746.367 312.359 743.291 308.77C740.271 305.124 735.913 303.302 730.217 303.302C726.571 303.302 723.381 304.184 720.646 305.95C717.969 307.659 715.861 310.052 714.323 313.128C712.842 316.147 712.102 319.651 712.102 323.638V376.104H687.15ZM830.961 377.984C821.676 377.984 813.644 376.076 806.865 372.259C800.086 368.442 794.845 362.974 791.142 355.853C787.439 348.732 785.588 340.216 785.588 330.303V330.133C785.588 320.277 787.468 311.818 791.228 304.754C794.987 297.633 800.257 292.165 807.036 288.348C813.815 284.531 821.761 282.623 830.876 282.623C840.048 282.623 848.023 284.531 854.802 288.348C861.638 292.108 866.936 297.548 870.695 304.669C874.455 311.733 876.335 320.22 876.335 330.133V330.303C876.335 340.273 874.455 348.817 870.695 355.938C866.993 363.059 861.752 368.528 854.973 372.344C848.194 376.104 840.19 377.984 830.961 377.984ZM831.047 358.416C835.091 358.416 838.595 357.334 841.557 355.169C844.576 352.948 846.883 349.757 848.479 345.599C850.131 341.383 850.957 336.285 850.957 330.303V330.133C850.957 324.208 850.131 319.167 848.479 315.008C846.826 310.85 844.491 307.688 841.472 305.523C838.452 303.302 834.921 302.191 830.876 302.191C826.888 302.191 823.385 303.302 820.366 305.523C817.403 307.688 815.096 310.85 813.444 315.008C811.792 319.167 810.966 324.208 810.966 330.133V330.303C810.966 336.285 811.764 341.383 813.359 345.599C815.011 349.757 817.347 352.948 820.366 355.169C823.385 357.334 826.945 358.416 831.047 358.416ZM889.836 376.104V252.801H914.787V376.104H889.836ZM973.662 377.984C964.376 377.984 956.344 376.076 949.565 372.259C942.786 368.442 937.545 362.974 933.842 355.853C930.139 348.732 928.288 340.216 928.288 330.303V330.133C928.288 320.277 930.168 311.818 933.928 304.754C937.688 297.633 942.957 292.165 949.736 288.348C956.515 284.531 964.462 282.623 973.576 282.623C982.748 282.623 990.723 284.531 997.502 288.348C1004.34 292.108 1009.64 297.548 1013.4 304.669C1017.16 311.733 1019.04 320.22 1019.04 330.133V330.303C1019.04 340.273 1017.16 348.817 1013.4 355.938C1009.69 363.059 1004.45 368.528 997.673 372.344C990.894 376.104 982.89 377.984 973.662 377.984ZM973.747 358.416C977.792 358.416 981.295 357.334 984.257 355.169C987.277 352.948 989.584 349.757 991.179 345.599C992.831 341.383 993.657 336.285 993.657 330.303V330.133C993.657 324.208 992.831 319.167 991.179 315.008C989.527 310.85 987.191 307.688 984.172 305.523C981.153 303.302 977.621 302.191 973.576 302.191C969.589 302.191 966.085 303.302 963.066 305.523C960.104 307.688 957.797 310.85 956.145 315.008C954.493 319.167 953.667 324.208 953.667 330.133V330.303C953.667 336.285 954.464 341.383 956.059 345.599C957.711 349.757 960.047 352.948 963.066 355.169C966.085 357.334 969.646 358.416 973.747 358.416ZM1074.75 407.891C1066.37 407.891 1059.05 406.724 1052.79 404.388C1046.58 402.109 1041.62 399.005 1037.92 395.074C1034.27 391.143 1032.05 386.728 1031.25 381.829L1031.17 381.06H1055.44L1055.69 381.658C1056.72 383.88 1058.85 385.845 1062.1 387.554C1065.35 389.263 1069.56 390.118 1074.75 390.118C1081.19 390.118 1086.08 388.58 1089.45 385.504C1092.81 382.427 1094.49 378.326 1094.49 373.199V359.185H1093.97C1092.38 362.375 1090.21 365.138 1087.48 367.474C1084.75 369.809 1081.53 371.632 1077.82 372.943C1074.18 374.196 1070.13 374.823 1065.69 374.823C1058.06 374.823 1051.45 373 1045.87 369.354C1040.34 365.708 1036.07 360.496 1033.05 353.717C1030.09 346.881 1028.61 338.734 1028.61 329.278V329.193C1028.61 319.451 1030.12 311.106 1033.13 304.156C1036.21 297.206 1040.54 291.88 1046.12 288.177C1051.71 284.474 1058.37 282.623 1066.12 282.623C1070.45 282.623 1074.41 283.335 1078 284.759C1081.58 286.183 1084.72 288.205 1087.39 290.826C1090.13 293.446 1092.32 296.551 1093.97 300.14H1094.49V284.503H1119.44V373.541C1119.44 380.32 1117.62 386.273 1113.97 391.4C1110.38 396.584 1105.22 400.628 1098.5 403.533C1091.84 406.439 1083.92 407.891 1074.75 407.891ZM1074.32 356.536C1078.42 356.536 1081.98 355.454 1085 353.289C1088.02 351.125 1090.36 348.048 1092.01 344.061C1093.72 340.073 1094.57 335.345 1094.57 329.876V329.791C1094.57 324.322 1093.72 319.622 1092.01 315.692C1090.36 311.704 1087.99 308.656 1084.92 306.549C1081.9 304.384 1078.37 303.302 1074.32 303.302C1070.22 303.302 1066.63 304.384 1063.55 306.549C1060.48 308.656 1058.11 311.676 1056.46 315.606C1054.81 319.537 1053.98 324.265 1053.98 329.791V329.876C1053.98 335.345 1054.81 340.073 1056.46 344.061C1058.11 348.048 1060.48 351.125 1063.55 353.289C1066.63 355.454 1070.22 356.536 1074.32 356.536ZM1150.2 406.268C1147.75 406.268 1145.39 406.154 1143.11 405.926C1140.83 405.698 1138.95 405.442 1137.47 405.157V386.615C1138.38 386.785 1139.55 386.956 1140.97 387.127C1142.4 387.355 1144.02 387.469 1145.84 387.469C1149.6 387.469 1152.56 386.842 1154.73 385.589C1156.89 384.336 1158.52 382.171 1159.6 379.095L1160.71 376.104L1128.32 284.503H1155.75L1176.43 361.065L1173.1 356.109H1177.8L1174.47 361.065L1195.15 284.503H1221.46L1190.02 377.728C1187.63 384.906 1184.61 390.574 1180.96 394.732C1177.37 398.891 1173.04 401.853 1167.97 403.619C1162.9 405.385 1156.98 406.268 1150.2 406.268Z" fill="#FFC600"/>
<g filter="url(#filter0_i_2_2)">
<path d="M343.146 251.391C340.139 246.036 333.364 244.221 328.115 247.307C322.82 250.347 321.025 257.199 324.032 262.509C353.914 315.102 361.452 358.983 343.684 376.953C309.718 411.35 203.873 352.222 130.109 277.62C111.488 258.788 94.7522 239.184 80.1699 219.581C95.1561 199.115 112.161 179.103 130.109 160.952C203.828 86.3952 309.674 27.3126 343.684 61.6641C357.548 75.686 356.113 105.953 339.691 144.706C321.698 187.181 288.226 234.419 245.466 277.665C235.461 287.784 225.096 297.541 214.642 306.616C210.02 310.61 209.526 317.689 213.475 322.317C217.468 326.991 224.423 327.49 229 323.497C239.858 314.058 250.626 303.894 261.036 293.411C305.725 248.214 340.857 198.525 359.926 153.51C380.387 105.273 380.117 67.0641 359.253 45.9631C318.154 4.39657 210.648 48.0505 114.539 145.296C96.6367 163.402 80.5737 181.917 66.5298 200.295C53.9217 181.372 43.4673 162.631 35.8844 144.752C19.4625 106.044 18.0267 75.7767 31.8911 61.7094C49.6592 43.7396 92.9575 51.3178 144.96 81.4944C150.21 84.5347 156.985 82.7196 159.991 77.365C162.998 72.0103 161.203 65.2036 155.908 62.1632C93.0921 25.7244 42.2109 19.7798 16.3217 45.9631C-4.58715 67.1095 -4.8115 105.273 15.6486 153.51C24.6224 174.747 37.2754 196.982 52.7102 219.308C2.05341 292.731 -14.4583 361.57 16.3217 392.699C27.0004 403.499 41.8969 408.808 60.1136 408.808C86.4515 408.808 119.744 397.645 157.254 375.682C162.504 372.597 164.299 365.79 161.248 360.435C158.197 355.126 151.466 353.311 146.172 356.396C93.6305 387.254 49.8386 395.104 31.8911 376.953C8.73886 353.538 28.526 296.361 66.799 238.685C80.9775 257.245 96.9957 275.668 114.494 293.366C159.184 338.563 208.315 374.049 252.87 393.38C276.426 403.59 297.604 408.718 315.506 408.718C333.813 408.718 348.664 403.363 359.253 392.699C385.143 366.516 379.265 315.011 343.146 251.391ZM187.81 182.144C167.529 182.144 151.063 198.797 151.063 219.308C151.063 239.819 167.529 256.473 187.81 256.473C208.091 256.473 224.558 239.819 224.558 219.308C224.513 198.797 208.091 182.144 187.81 182.144Z" fill="#FFC600"/>
</g>
<defs>
<filter id="filter0_i_2_2" x="0.469971" y="29.8469" width="374.713" height="382.962" filterUnits="userSpaceOnUse" color-interpolation-filters="sRGB">
<feFlood flood-opacity="0" result="BackgroundImageFix"/>
<feBlend mode="normal" in="SourceGraphic" in2="BackgroundImageFix" result="shape"/>
<feColorMatrix in="SourceAlpha" type="matrix" values="0 0 0 0 0 0 0 0 0 0 0 0 0 0 0 0 0 0 127 0" result="hardAlpha"/>
<feOffset dy="4"/>
<feGaussianBlur stdDeviation="2"/>
<feComposite in2="hardAlpha" operator="arithmetic" k2="-1" k3="1"/>
<feColorMatrix type="matrix" values="0 0 0 0 0 0 0 0 0 0 0 0 0 0 0 0 0 0 0.25 0"/>
<feBlend mode="normal" in2="shape" result="effect1_innerShadow_2_2"/>
</filter>
</defs>
</svg>
